<svg aria-hidden="true" style="position: absolute; width: 0; height: 0; overflow: hidden;" version="1.1" xmlns="http://www.w3.org/2000/svg" xmlns:xlink="http://www.w3.org/1999/xlink">
<defs>
<symbol id="icon-IMAGE-9" viewBox="0 0 125 32">
<path d="M28.674 25.777c-1.651 1.886-3.688 3.411-5.971 4.472-2.282 1.053-4.766 1.617-7.276 1.659-9.272 0-15.427-5.912-15.427-15.613 0-9.996 7.554-16 13.28-16 1.28-0.067 2.56 0.168 3.731 0.691s2.206 1.314 3.006 2.307l1.002-2.425h6.872v12.295h-7.789c-0.135-2.813-1.533-5.465-4.64-5.465-3.099 0-5.196 3.865-5.196 8.598 0 4.312 2.232 8.185 6.383 8.185 3.672 0 6.552-3.832 6.947-4.261l5.078 5.558zM44.589 0.825v5.743h-2.712v6.56h8.303v-6.56h-2.577v-5.743h14.206v5.743h-2.518v18.905h2.518v5.743h-14.206v-5.743h2.577v-6.568h-8.303v6.568h2.712v5.743h-14.173v-5.743h2.417v-18.905h-2.417v-5.743h14.173zM63.562 15.823c0-9.347 6.299-15.823 15.343-15.823 10.712 0 15.697 6.383 15.697 16.168 0 9.777-5.516 15.832-15.394 15.832-9.137 0-15.646-5.263-15.646-16.135v-0.042zM83.663 16.126c0-5.263-1.44-9.474-4.808-9.474-2.669 0-4.505 3.781-4.505 9.171 0 5.701 2.013 9.305 4.851 9.305 2.829 0 4.472-3.562 4.472-8.96l-0.008-0.042zM124.632 25.777c-1.659 1.886-3.688 3.411-5.971 4.472-2.282 1.053-4.766 1.617-7.284 1.659-9.263 0-15.427-5.912-15.427-15.613 0-9.996 7.562-16 13.288-16 1.28-0.067 2.56 0.168 3.731 0.691s2.206 1.314 3.006 2.307l1.002-2.425h6.863v12.295h-7.823c-0.135-2.813-1.533-5.465-4.64-5.465-3.099 0-5.196 3.865-5.196 8.598 0 4.312 2.232 8.185 6.383 8.185 3.672 0 6.552-3.832 6.947-4.261l5.12 5.558z"></path>
</symbol>
<symbol id="icon-IMAGE-8" viewBox="0 0 120 32">
<path d="M31.874 4.067c0.278 0.303 0.362 0.547 0.253 0.724-0.118 0.185-0.354 0.16-0.716 0-0.345-0.185-0.733-0.286-1.128-0.312-0.345 0.008-0.674-0.109-0.935-0.337-0.724-0.724-1.6-1.28-2.56-1.642-0.994-0.379-2.038-0.606-3.107-0.674-1.069-0.084-2.139-0.034-3.192 0.143-0.985 0.16-1.937 0.446-2.846 0.842-1.069 0.497-2.080 1.12-3.015 1.853-1.179 0.876-2.291 1.836-3.335 2.872-1.162 1.112-2.248 2.299-3.259 3.554-1.019 1.288-1.945 2.644-2.771 4.067-0.8 1.331-1.474 2.737-2.013 4.194-0.472 1.322-0.733 2.703-0.783 4.101-0.017 0.337 0.076 0.674 0.269 0.952 0.185 0.236 0.429 0.413 0.707 0.522 0.303 0.109 0.623 0.168 0.943 0.185 0.303 0.017 0.615 0.017 0.918 0 1.027-0.101 2.038-0.337 3.015-0.691 1.011-0.354 2.004-0.775 2.964-1.263 0.977-0.505 1.903-1.036 2.771-1.592 0.884-0.556 1.693-1.095 2.408-1.608 0.724-0.522 1.373-1.002 1.92-1.398 0.556-0.387 0.96-0.699 1.238-0.876 0.421-0.303 0.893-0.531 1.389-0.682 0.354-0.042 0.699-0.168 1.002-0.362l1.288-0.817c0.303-0.168 0.48-0.219 0.531-0.152 0.051 0.076 0 0.236-0.261 0.463-1.078 1.137-2.198 2.232-3.377 3.251-1.171 1.019-2.366 1.996-3.587 2.998-0.741 0.581-1.507 1.12-2.299 1.617-0.918 0.598-1.861 1.137-2.838 1.625-0.977 0.48-1.979 0.901-3.015 1.255-0.909 0.328-1.869 0.497-2.838 0.514-0.893 0.034-1.777-0.126-2.602-0.463-0.682-0.278-1.28-0.733-1.743-1.305-0.455-0.556-0.792-1.204-1.002-1.895-0.194-0.707-0.286-1.448-0.269-2.189 0.042-1.474 0.337-2.931 0.859-4.32 0.564-1.566 1.288-3.065 2.156-4.488 0.918-1.507 1.954-2.947 3.116-4.286 1.137-1.331 2.375-2.568 3.705-3.714 1.196-1.019 2.476-1.937 3.84-2.728 1.128-0.699 2.366-1.229 3.655-1.558 1.238-0.261 2.501-0.404 3.773-0.446 2.619-0.084 5.229 0.497 7.571 1.676 1.196 0.606 2.282 1.415 3.2 2.392zM20.48 19.116c-0.202 0.177-0.413 0.337-0.64 0.488-0.084 0-0.126 0-0.118-0.051 0.034-0.135 0.093-0.269 0.16-0.387 0.084-0.143 0.152-0.286 0.211-0.429 0.194-0.463 0.328-0.943 0.413-1.432 0.034-0.371 0.185-0.716 0.421-1.002l0.733-0.859c0.337-0.387 0.724-0.817 1.187-1.28 0.497-0.48 1.011-0.943 1.549-1.373 0.556-0.438 1.145-0.817 1.777-1.137 0.126-0.067 0.261-0.101 0.396-0.118 0.143-0.008 0.278 0.008 0.413 0.059 0.286 0.084 0.556 0.219 0.8 0.396 0.219 0.168 0.404 0.371 0.531 0.615 0.059 0.084 0.084 0.185 0.084 0.286s-0.025 0.194-0.084 0.278c-0.337 0.632-0.716 1.246-1.12 1.836-0.505 0.699-1.011 1.44-1.499 2.232-0.497 0.783-0.943 1.583-1.356 2.4-0.371 0.707-0.648 1.465-0.834 2.248 0.699-0.404 1.347-0.876 1.945-1.415 0.682-0.606 1.356-1.28 2.013-1.996 0.648-0.724 1.314-1.465 2.013-2.215l1.777-2.080c0.067-0.101 0.168-0.177 0.295-0.219 0.118-0.042 0.244-0.042 0.371 0 0.269 0.076 0.522 0.227 0.733 0.429 0.211 0.227 0.371 0.488 0.472 0.783 0.051 0.126 0.084 0.261 0.084 0.396 0 0.143-0.034 0.278-0.084 0.404-0.606 1.137-1.078 2.341-1.423 3.579 0.859-0.497 1.684-1.053 2.467-1.659 0.792-0.615 1.415-1.078 1.878-1.415 0.143-0.093 0.295-0.168 0.455-0.227l0.497-0.152c0.211-0.059 0.413-0.135 0.615-0.227 0.236-0.101 0.514-0.236 0.842-0.421 0.438-0.227 0.665-0.295 0.682-0.227 0.025 0.067-0.109 0.269-0.421 0.573-0.556 0.556-1.154 1.154-1.794 1.785-0.648 0.632-1.288 1.255-1.954 1.853-0.657 0.598-1.314 1.162-2.004 1.676-0.564 0.472-1.171 0.884-1.811 1.229-0.093 0.059-0.194 0.093-0.303 0.101-0.101 0.008-0.211 0-0.312-0.042-0.236-0.059-0.463-0.16-0.665-0.295-0.211-0.135-0.396-0.303-0.539-0.505-0.126-0.152-0.202-0.345-0.211-0.547-0.042-0.404-0.034-0.817 0.017-1.221-0.665 0.691-1.356 1.339-2.080 2.004-0.758 0.64-1.575 1.221-2.434 1.735-0.278 0.135-0.589 0.194-0.901 0.152-0.404-0.025-0.8-0.101-1.187-0.227-0.362-0.126-0.707-0.312-1.002-0.547-0.143-0.118-0.253-0.261-0.328-0.421-0.067-0.168-0.109-0.345-0.101-0.522-0.025-0.438 0.025-0.876 0.168-1.288 0.152-0.488 0.328-0.968 0.531-1.432 0.219-0.497 0.463-1.002 0.733-1.474l0.741-1.364c-0.48 0.455-0.952 0.909-1.415 1.364-0.463 0.463-0.952 0.926-1.381 1.305zM39.907 15.267c-0.632 0.733-1.221 1.373-1.726 1.937-0.32 0.404-0.749 0.716-1.246 0.876-0.211 0.017-0.421 0.017-0.632 0-0.236 0.017-0.463 0.093-0.665 0.211-0.303 0.152-0.589 0.337-0.842 0.556-0.244 0.202-0.497 0.396-0.766 0.564-0.177 0.126-0.211 0.076-0.101-0.126s0.522-0.741 1.213-1.6c1.103-1.373 2.164-2.703 3.192-4 0.952-1.213 1.844-2.467 2.661-3.773 0.059-0.076 0.143-0.135 0.244-0.168 0.093-0.025 0.194-0.025 0.286 0 0.244 0.051 0.463 0.143 0.674 0.261 0.253 0.118 0.472 0.286 0.657 0.488 0.177 0.211 0.261 0.379 0.227 0.531-0.126 0.413-0.236 0.808-0.337 1.204-0.101 0.387-0.194 0.8-0.269 1.196 0.775-0.539 1.667-0.876 2.602-1.002 0.488-0.042 0.994 0.051 1.432 0.269 0.463 0.227 0.893 0.514 1.272 0.867 0.345 0.312 0.64 0.674 0.876 1.078 0.185 0.278 0.286 0.606 0.286 0.952-0.042 0.808-0.337 1.592-0.842 2.223-0.514 0.657-1.137 1.213-1.836 1.667 0.808-0.261 1.6-0.598 2.349-1.002 0.632-0.362 1.162-0.682 1.608-1.002 0.438-0.32 0.825-0.547 1.137-0.758 0.261-0.202 0.581-0.345 0.909-0.404 0.126-0.008 0.253-0.008 0.379 0 0.118 0 0.227-0.025 0.328-0.076 0.143-0.067 0.278-0.16 0.396-0.261l0.657-0.539c0.177-0.168 0.295-0.236 0.337-0.168 0.051 0.059 0.051 0.118 0 0.168-0.573 0.918-1.246 1.768-2.004 2.552-0.8 0.834-1.676 1.592-2.627 2.265-0.926 0.665-1.92 1.229-2.964 1.701-0.977 0.438-2.013 0.716-3.082 0.834-0.236 0.017-0.472-0.008-0.691-0.076-0.345-0.084-0.682-0.185-1.011-0.312-0.312-0.109-0.615-0.261-0.893-0.446-0.219-0.135-0.413-0.32-0.547-0.539l-0.168 0.421c-0.295 0.842-0.606 1.701-0.909 2.568s-0.648 1.752-1.002 2.627c-0.362 0.867-0.775 1.709-1.229 2.535-0.438 0.8-0.952 1.549-1.549 2.248-0.067 0.076-0.152 0.126-0.253 0.16-0.093 0.025-0.202 0.034-0.295 0.008-0.253-0.051-0.472-0.185-0.64-0.379-0.219-0.253-0.379-0.539-0.48-0.859-0.109-0.396-0.143-0.817-0.093-1.221 0.278-2.038 0.851-4.034 1.718-5.903 0.935-2.063 1.971-4.084 3.107-6.046 0.118-0.227 0.261-0.463 0.404-0.691 0.135-0.227 0.278-0.438 0.429-0.648l0.32-0.968zM46.686 14.316c-1.078 0.025-2.114 0.421-2.931 1.12-0.825 0.699-1.558 1.516-2.156 2.417-0.126 0.505-0.253 0.994-0.362 1.474-0.118 0.472-0.253 0.994-0.404 1.457l0.219-0.109c0.623-0.269 1.204-0.606 1.752-1.002 0.657-0.438 1.28-0.935 1.853-1.491 0.581-0.539 1.078-1.162 1.474-1.844 0.371-0.606 0.564-1.314 0.556-2.021zM54.257 20.901c0.935-0.034 1.844-0.211 2.72-0.539 0.893-0.328 1.76-0.741 2.577-1.229 0.825-0.488 1.617-1.044 2.375-1.642 0.749-0.598 1.432-1.154 2.004-1.693 0.067-0.067 0.135-0.118 0.219-0.152 0.076-0.025 0.16-0.042 0.244-0.042 0.126 0 0.101 0.177-0.076 0.463-0.286 0.472-0.497 0.985-0.632 1.516-0.042 0.337-0.168 0.648-0.362 0.918-0.261 0.312-0.539 0.615-0.825 0.893-0.371 0.362-0.766 0.699-1.187 1.002-0.438 0.337-0.918 0.665-1.398 1.002-0.455 0.295-0.943 0.539-1.457 0.724-0.446 0.185-0.901 0.328-1.373 0.429-0.505 0.118-1.019 0.194-1.533 0.211-0.396-0.017-0.792-0.101-1.162-0.261-0.455-0.177-0.884-0.429-1.263-0.724s-0.716-0.632-1.011-1.002c-0.253-0.278-0.421-0.623-0.472-1.002-0.135-1.179-0.051-2.383 0.236-3.537 0.261-1.053 0.682-2.063 1.229-2.998 0.531-0.893 1.204-1.684 2.013-2.333 0.792-0.648 1.684-1.145 2.653-1.474 0.345-0.109 0.724-0.109 1.078 0 0.404 0.135 0.8 0.32 1.162 0.556 0.345 0.219 0.648 0.488 0.918 0.8 0.211 0.219 0.337 0.514 0.362 0.817-0.008 0.345-0.101 0.691-0.261 1.002-0.202 0.404-0.429 0.792-0.674 1.171-0.261 0.396-0.564 0.817-0.876 1.246l-0.909 1.221c-0.278 0.362-0.48 0.48-0.606 0.379-0.135-0.101-0.109-0.371 0-0.8 0.101-0.278 0.168-0.497 0.211-0.657 0.034-0.143 0.051-0.295 0.059-0.446 0-0.118-0.017-0.244-0.059-0.354-0.042-0.135-0.076-0.269-0.101-0.404-0.017-0.194 0-0.387 0.059-0.581 0.067-0.219 0.152-0.429 0.253-0.64 0.101-0.227 0.202-0.463 0.303-0.724s0.177-0.531 0.227-0.8c-0.775 0.312-1.465 0.8-2.013 1.423-0.657 0.733-1.213 1.549-1.642 2.434-0.472 0.926-0.808 1.912-1.011 2.931-0.202 0.952-0.202 1.945 0 2.897zM65.516 13.903c0.648-0.64 1.347-1.229 2.080-1.768 0.488-0.371 1.053-0.64 1.651-0.8 0.463-0.118 0.952-0.084 1.389 0.109 0.514 0.244 0.968 0.581 1.339 1.002l0.581-0.876c0.076-0.084 0.177-0.152 0.286-0.185s0.227-0.034 0.337 0c0.303 0.042 0.598 0.16 0.851 0.337 0.244 0.16 0.455 0.379 0.606 0.632 0.076 0.093 0.109 0.202 0.109 0.312 0 0.118-0.034 0.227-0.109 0.32-0.253 0.345-0.48 0.716-0.682 1.095-0.328 0.581-0.682 1.255-1.002 2.004s-0.707 1.491-1.002 2.232c-0.269 0.573-0.472 1.171-0.606 1.785-0.017 0.067-0.017 0.135 0 0.194v0.227c0.522-0.295 1.019-0.632 1.499-1.002 0.547-0.396 1.103-0.808 1.634-1.229l1.516-1.196 1.086-0.884c0.168-0.126 0.354-0.236 0.547-0.32 0.143-0.059 0.295-0.118 0.446-0.168l0.505-0.177c0.219-0.084 0.421-0.194 0.615-0.32 0.152-0.101 0.261-0.135 0.32-0.093s0 0.143-0.093 0.32c-1.002 1.322-2.004 2.602-3.175 3.848-0.312 0.337-0.648 0.716-1.002 1.145-0.387 0.421-0.8 0.817-1.246 1.179-0.421 0.337-0.893 0.615-1.398 0.817-0.48 0.194-1.002 0.211-1.499 0.059-0.699-0.093-1.339-0.455-1.794-0.994-0.278-0.505-0.354-1.095-0.194-1.642-0.472 0.691-0.985 1.356-1.524 1.996-0.421 0.531-0.918 0.977-1.491 1.331-1.735 1.002-3.015 0.674-3.907-1.095-0.202-0.438-0.303-0.909-0.303-1.389-0.017-0.665 0.093-1.314 0.32-1.937 0.278-0.792 0.64-1.558 1.095-2.265 0.632-0.952 1.373-1.827 2.215-2.611v0.008zM66.046 20.152c0.994-1.069 1.945-2.198 2.855-3.385 0.901-1.204 1.768-2.4 2.585-3.621-0.438-0.025-0.867 0.084-1.229 0.32-0.505 0.295-0.985 0.632-1.44 1.002-0.472 0.371-0.901 0.724-1.297 1.086-0.278 0.236-0.539 0.488-0.783 0.758-0.312 0.362-0.648 0.808-1.002 1.356-0.387 0.547-0.766 1.103-1.103 1.693-0.32 0.531-0.598 1.078-0.825 1.642-0.194 0.345-0.253 0.758-0.152 1.145 0.152 0.227 0.396 0.168 0.741-0.177l1.651-1.819zM94.787 16.387c0.135-0.076 0.278-0.135 0.421-0.185l0.404-0.109 0.488-0.168c0.194-0.084 0.438-0.194 0.716-0.337 0.278-0.152 0.522-0.286 0.573-0.211 0.051 0.067 0 0.227-0.312 0.505-0.514 0.632-1.112 1.322-1.827 2.063s-1.457 1.406-2.223 2.055c-0.716 0.615-1.474 1.179-2.257 1.684-0.589 0.404-1.255 0.682-1.954 0.817-0.817 0.126-1.651 0.025-2.408-0.286-0.648-0.219-1.196-0.64-1.566-1.213-0.269-0.472-0.413-1.002-0.438-1.549-0.051-0.598-0.051-1.196 0-1.785 0.025-0.244 0.126-0.48 0.278-0.665 0.16-0.194 0.362-0.337 0.598-0.404 0.387-0.177 0.766-0.379 1.137-0.598 0.429-0.253 0.842-0.547 1.221-0.867 0.387-0.345 0.741-0.724 1.061-1.128 0.328-0.354 0.573-0.766 0.733-1.221-0.825 0.253-1.592 0.674-2.265 1.221-0.691 0.531-1.339 1.103-1.945 1.726-0.623 0.64-1.221 1.305-1.777 2.004-0.606 0.749-1.162 1.457-1.667 2.147-0.514 0.691-0.952 1.288-1.297 1.836-0.354 0.539-0.598 0.867-0.699 0.994-0.084 0.143-0.194 0.269-0.328 0.362s-0.286 0.16-0.455 0.194c-0.312 0.051-0.632 0.034-0.943-0.051-0.303-0.084-0.589-0.227-0.834-0.429-0.093-0.067-0.152-0.16-0.185-0.261-0.025-0.101-0.017-0.219 0.034-0.312l3.596-6.467c-0.691 0.657-1.415 1.28-2.181 1.853-0.766 0.589-1.575 1.12-2.408 1.6-0.312 0.202-0.615 0.396-0.926 0.556s-0.539 0.286-0.699 0.371c-0.16 0.076-0.253 0.076-0.253 0 0-0.084 0.143-0.236 0.421-0.514 0.505-0.488 0.968-1.019 1.398-1.575 0.278-0.371 0.505-0.775 0.674-1.204 0.185-0.497 0.505-0.926 0.935-1.238l2.004-1.811c0.766-0.707 1.592-1.533 2.476-2.451 0.918-0.994 1.76-2.055 2.501-3.183 0.48-0.994 1.002-1.996 1.398-3.065s0.834-2.080 1.246-3.082c0.067-0.177 0.219-0.244 0.455-0.194 0.269 0.067 0.514 0.211 0.707 0.404 0.253 0.227 0.472 0.488 0.648 0.783 0.202 0.286 0.295 0.64 0.253 0.994-0.025 0.421-0.109 0.825-0.253 1.221-0.135 0.404-0.295 0.792-0.497 1.162-0.16 0.354-0.362 0.682-0.589 1.002-0.202 0.269-0.371 0.48-0.505 0.623-0.219 0.514-0.421 1.002-0.589 1.322s-0.337 0.716-0.514 1.002c-0.185 0.286-0.362 0.682-0.531 1.002-0.177 0.32-0.404 0.775-0.657 1.255 0.615-0.379 1.263-0.716 1.928-0.994 0.699-0.269 1.457-0.387 2.206-0.345 0.269 0.017 0.539 0.093 0.783 0.236 0.32 0.152 0.615 0.345 0.884 0.589 0.261 0.236 0.48 0.514 0.648 0.825 0.16 0.286 0.211 0.623 0.135 0.943-0.152 0.522-0.387 1.027-0.699 1.482-0.328 0.514-0.724 0.994-1.162 1.423-0.455 0.421-0.952 0.792-1.474 1.112-0.497 0.337-1.019 0.615-1.575 0.842-0.051 0.396 0.042 0.8 0.261 1.137 0.236 0.379 0.413 0.691 0.547 0.926 0.674-0.143 1.314-0.396 1.895-0.758 0.707-0.404 1.389-0.867 2.072-1.347s1.288-0.935 1.853-1.373c0.404-0.337 0.842-0.64 1.305-0.909v0.017zM101.179 15.545c-0.303 0.438-0.64 0.859-1.011 1.246-0.413 0.429-0.851 0.834-1.314 1.213-0.438 0.371-0.901 0.699-1.381 1.002-0.396 0.261-0.817 0.455-1.272 0.589 0 0.278 0.025 0.556 0.059 0.842 0.025 0.244 0.118 0.48 0.253 0.682 0.076 0.152 0.185 0.269 0.337 0.354 0.143 0.076 0.303 0.118 0.472 0.101 0.345-0.034 0.691-0.135 1.002-0.303 0.648-0.328 1.263-0.699 1.844-1.128 0.648-0.455 1.272-0.943 1.861-1.457 0.615-0.539 1.204-1.095 1.777-1.659 0.573-0.573 1.112-1.112 1.592-1.625 0.202-0.202 0.354-0.269 0.438-0.211 0.093 0.059 0.084 0.194 0 0.371-0.236 0.531-0.446 1.078-0.632 1.634-0.135 0.455-0.261 0.842-0.362 1.145s-0.253 0.589-0.438 0.851c-0.278 0.421-0.581 0.825-0.918 1.204-0.396 0.463-0.825 0.893-1.288 1.297-0.472 0.429-1.011 0.792-1.583 1.078-0.573 0.295-1.187 0.48-1.827 0.556-0.682 0.076-1.373-0.008-2.013-0.261-0.842-0.278-1.558-0.842-2.004-1.6-0.404-0.707-0.623-1.507-0.64-2.324-0.017-0.876 0.109-1.743 0.387-2.577 0.253-0.825 0.589-1.625 1.002-2.383 0.211-0.379 0.455-0.749 0.724-1.095 0.312-0.413 0.648-0.808 1.002-1.179 0.337-0.371 0.707-0.699 1.112-1.002 0.312-0.253 0.691-0.413 1.095-0.48 0.463-0.008 0.926 0.109 1.331 0.328 0.429 0.185 0.834 0.438 1.187 0.741 0.261 0.269 0.413 0.623 0.421 1.002 0.025 0.362-0.034 0.733-0.168 1.069-0.152 0.345-0.328 0.682-0.531 0.994l-0.514 0.985zM96.968 16.867c0.615-0.606 1.187-1.255 1.701-1.945 0.522-0.699 0.96-1.474 1.28-2.291-0.261 0.185-0.505 0.404-0.707 0.648-0.244 0.278-0.463 0.573-0.665 0.884-0.211 0.303-0.404 0.598-0.573 0.893-0.177 0.286-0.32 0.531-0.421 0.707l-0.615 1.103zM118.198 15.865c0.413-0.303 0.648-0.429 0.699-0.362 0.042 0.067-0.093 0.278-0.429 0.657-0.606 0.741-1.246 1.482-1.903 2.215-0.665 0.733-1.331 1.432-2.013 2.080-0.632 0.615-1.305 1.196-2.013 1.726-0.606 0.472-1.288 0.859-2.004 1.145-0.202 0.531-0.564 0.994-1.027 1.331-0.463 0.328-1.019 0.522-1.6 0.539s-1.162-0.084-1.709-0.303c-0.581-0.219-1.12-0.564-1.566-1.002-0.143-0.152-0.269-0.32-0.379-0.497-0.126-0.194-0.219-0.413-0.278-0.64-0.076-0.211-0.093-0.429-0.067-0.648 0.017-0.109 0.059-0.211 0.118-0.303s0.135-0.177 0.227-0.236c0.135-0.109 0.303-0.177 0.48-0.168 0.211 0 0.446 0 0.682 0 0.244 0 0.472 0 0.699 0.076l0.514 0.093c0.354 0 0.691 0 1.002 0s0.623-0.025 0.935-0.076c0.076-0.379 0.118-0.766 0.118-1.154v-1.069c0-0.691 0-1.381 0-2.080 0-0.707-0.101-1.406-0.168-2.114-0.926 0.994-1.903 1.937-2.922 2.821-1.069 0.909-2.013 1.701-2.855 2.358-0.362 0.278-0.522 0.32-0.505 0.135 0.059-0.261 0.185-0.505 0.354-0.707 0.177-0.227 0.328-0.472 0.455-0.733s0.236-0.522 0.328-0.792l0.244-0.682c0.059-0.177 0.168-0.337 0.312-0.463 0.328-0.328 0.884-0.994 1.667-1.853 0.935-1.162 1.777-2.4 2.501-3.705 0.042-0.084 0.118-0.152 0.211-0.194 0.084-0.042 0.185-0.051 0.278-0.034 0.244 0.034 0.488 0.118 0.699 0.253 0.227 0.135 0.438 0.303 0.632 0.497 0.152 0.118 0.261 0.286 0.32 0.472 0.227 1.347 0.438 2.737 0.632 4.185 0.194 1.415 0.219 2.846 0.101 4.269 0.539-0.269 1.044-0.606 1.507-0.994 0.522-0.421 1.002-0.851 1.524-1.28s1.011-0.842 1.44-1.221c0.387-0.328 0.808-0.615 1.263-0.842 0.286-0.118 0.539-0.219 0.766-0.303 0.269-0.084 0.514-0.219 0.733-0.387v-0.008z"></path>
</symbol>
<symbol id="icon-IMAGE-7" viewBox="0 0 109 32">
<path d="M4.88 31.040c-1.81 0-3.060-0.37-3.78-1.12-0.82-1.040-1.2-2.36-1.080-3.67v-22.43c-0.040-0.52 0.030-1.050 0.21-1.54 0.19-0.49 0.47-0.93 0.84-1.31 0.7-0.65 1.64-1 2.6-0.96h8.2l1.080 5.81h-5.97c-0.37 0-0.56 0.2-0.56 0.6v18.23c0 0.41 0.19 0.61 0.56 0.61h5.97l-1.12 5.81-6.95-0.030zM21.090 27.16l-0.57 3.88h-6.27l5.62-31.030h6.66l5.6 31.030h-6.25l-0.56-3.88h-4.23zM21.77 22.23h2.92l-1.47-10.97-1.45 10.97zM46.11 0.010c0.51-0.040 1.020 0.030 1.5 0.21 0.48 0.17 0.91 0.45 1.27 0.81 0.64 0.77 0.97 1.74 0.93 2.74v14.85c0 0.56-0.070 1.11-0.2 1.65-0.12 0.49-0.37 0.94-0.71 1.31-0.38 0.4-0.85 0.7-1.37 0.87-0.69 0.24-1.42 0.34-2.15 0.32h-5.33v8.27h-6.18v-31.030h12.24zM40.050 5.45v12.18h3.1c0.25 0 0.42-0.040 0.49-0.14 0.080-0.15 0.12-0.32 0.1-0.5v-10.95c0-0.4-0.18-0.59-0.55-0.59h-3.14zM64.67 0.010l1.53 5.81h-4.15v25.22h-6.36v-25.22h-4.16l1.62-5.81h11.52zM71.33 27.16l-0.55 3.88h-6.28l5.59-31.030h6.66l5.63 31.030h-6.24l-0.55-3.88h-4.26zM72.030 22.31h2.92l-1.47-11.050-1.45 11.050zM84.12 0.010h6.23v31.030h-6.23v-31.030zM92.94 0.010h5.93l3.18 12.45v-12.45h6.4v31.030h-6.4l-3.35-12.97v12.97h-5.76v-31.030z"></path>
</symbol>
<symbol id="icon-Vector" viewBox="0 0 120 32">
<path d="M19.371 26.897c-0.164 0.061-0.337 0.095-0.51 0.095l-1.929 0.061h-1.661c-1.367 1.514-2.993 2.768-4.81 3.703-1.289 0.64-2.717 0.952-4.161 0.917-0.891-0.017-1.765-0.182-2.604-0.476-0.761-0.26-1.462-0.666-2.068-1.194-0.562-0.476-1.004-1.073-1.298-1.748-0.294-0.692-0.398-1.445-0.294-2.189 0.061-1.107 0.459-2.18 1.125-3.071 0.528-0.649 1.22-1.159 2.007-1.471 0.709-0.268 1.471-0.372 2.232-0.32 0.588 0.035 1.177 0.138 1.748 0.32 0.355 0.147 0.657 0.407 0.857 0.735 0.156 0.26 0.225 0.562 0.19 0.865-0.026 0.13-0.078 0.26-0.147 0.372-0.078 0.104-0.164 0.199-0.277 0.277-0.138 0.078-0.294 0.112-0.45 0.112s-0.303-0.035-0.441-0.112c-0.519-0.242-1.116-0.285-1.661-0.121-0.476 0.164-0.891 0.45-1.203 0.831-0.311 0.398-0.51 0.857-0.588 1.35-0.104 0.502-0.061 1.012 0.112 1.488 0.19 0.502 0.536 0.917 0.995 1.194 0.606 0.355 1.306 0.519 2.007 0.484 1.575-0.112 3.071-0.761 4.231-1.834-0.58 0-0.943-0.182-1.081-0.441-0.078-0.13-0.112-0.285-0.112-0.433 0-0.156 0.035-0.303 0.112-0.433 0.208-0.355 0.493-0.666 0.831-0.9 0.372-0.268 0.813-0.424 1.272-0.459h0.735c0.303 0 0.658 0 1.055 0 1.505-1.696 2.907-3.487 4.187-5.355 1.436-2.094 2.838-4.205 4.256-6.367 1.41-2.163 2.699-4.291 3.997-6.385 1.306-2.094 2.613-3.988 3.85-5.623 0.277-0.381 0.692-0.64 1.159-0.727 0.398-0.095 0.822-0.052 1.203 0.112 0.164 0.078 0.32 0.19 0.441 0.337 0.121 0.138 0.216 0.311 0.268 0.484 0.052 0.225 0.061 0.459 0.009 0.683-0.043 0.234-0.138 0.441-0.277 0.623-1.055 1.626-2.085 3.409-3.115 5.364s-2.007 3.928-2.855 5.909c-0.848 1.981-1.678 3.902-2.319 5.745-0.606 1.601-1.099 3.236-1.497 4.905-0.294 1.116-0.433 2.275-0.398 3.435 0.069 0.874 0.389 1.306 1.004 1.306 0.268-0.009 0.545-0.069 0.796-0.164 0.346-0.112 0.683-0.26 1.004-0.424 0.346-0.199 0.683-0.415 1.004-0.649 0.329-0.234 0.632-0.493 0.917-0.779l1.289-1.306c0.381-0.398 0.735-0.822 1.064-1.263 0.078-0.13 0.19-0.234 0.32-0.311 0.13-0.069 0.277-0.112 0.433-0.112 0.311-0.026 0.623 0.035 0.9 0.173 0.26 0.121 0.467 0.329 0.597 0.58 0.061 0.13 0.078 0.268 0.052 0.407-0.026 0.147-0.087 0.268-0.19 0.372l-1.237 1.479c-0.528 0.632-1.185 1.341-2.007 2.137-0.519 0.484-1.004 0.908-1.419 1.237-0.398 0.32-0.831 0.597-1.289 0.822-0.424 0.216-0.874 0.363-1.332 0.459-0.519 0.095-1.047 0.147-1.575 0.138-0.536 0.052-1.081-0.052-1.566-0.285s-0.9-0.597-1.194-1.047c-0.58-1.073-0.822-2.301-0.692-3.512zM19.691 24.371c0.467-2.016 1.133-3.98 1.998-5.857-0.727 1.159-1.445 2.232-2.137 3.21s-1.35 1.869-2.007 2.699c0.433 0 0.831-0.052 1.203-0.052h0.943zM32.443 18.194c0.078-0.147 0.19-0.268 0.32-0.355 0.138-0.095 0.294-0.156 0.459-0.173 0.389-0.087 0.787-0.087 1.177 0 0.355 0.078 0.683 0.251 0.934 0.51 0.121 0.112 0.199 0.268 0.225 0.433s0 0.337-0.078 0.484l-0.277 0.545 0.182-0.138c0.657-0.606 1.402-1.099 2.215-1.462 0.493-0.234 1.038-0.329 1.583-0.277 0.424 0.052 0.813 0.251 1.107 0.554 0.311 0.303 0.562 0.666 0.753 1.055 0.268 0.657 0.268 1.393 0 2.042-0.32 0.882-0.709 1.73-1.168 2.544-0.346 0.675-0.692 1.306-1.064 1.903s-0.735 1.211-1.099 1.851c-0.147 0.199-0.234 0.424-0.251 0.666 0 0.112 0.087 0.138 0.225 0.112 0.173-0.052 0.329-0.112 0.484-0.199 0.173-0.104 0.337-0.225 0.502-0.355 0.709-0.545 1.376-1.133 1.998-1.782 0.571-0.562 1.099-1.159 1.592-1.791 0.078-0.138 0.19-0.251 0.329-0.329s0.294-0.121 0.45-0.13c0.303-0.026 0.606 0.043 0.874 0.182 0.251 0.121 0.459 0.329 0.58 0.58 0.061 0.121 0.078 0.26 0.069 0.398-0.017 0.138-0.069 0.268-0.156 0.372-0.164 0.182-0.363 0.45-0.623 0.805-0.26 0.346-0.562 0.727-0.9 1.125-0.346 0.398-0.709 0.805-1.133 1.229-0.424 0.433-0.831 0.831-1.263 1.203-0.657 0.614-1.41 1.125-2.232 1.505-0.545 0.251-1.142 0.381-1.748 0.381-0.459 0.009-0.908-0.138-1.263-0.424-0.337-0.268-0.606-0.614-0.787-0.995-0.294-0.632-0.337-1.341-0.112-1.998 0.285-0.891 0.666-1.765 1.133-2.587 0.112-0.242 0.268-0.528 0.459-0.865s0.372-0.675 0.571-0.995c0.199-0.32 0.381-0.692 0.545-0.995 0.147-0.277 0.303-0.545 0.484-0.805 0.19-0.337 0.26-0.554 0.234-0.666-0.035-0.104-0.138-0.138-0.294-0.104-0.199 0.043-0.398 0.104-0.58 0.199-0.208 0.104-0.415 0.225-0.606 0.346-0.484 0.337-0.995 0.709-1.505 1.116-0.502 0.389-0.978 0.813-1.436 1.263-0.311 0.727-0.614 1.462-0.934 2.206l-0.908 2.059c-0.277 0.64-0.51 1.185-0.709 1.644s-0.346 0.779-0.441 0.995c-0.095 0.208-0.234 0.381-0.407 0.528-0.173 0.138-0.372 0.242-0.588 0.294-0.433 0.13-0.891 0.13-1.315 0-0.407-0.13-0.744-0.407-0.943-0.779-0.104-0.234-0.156-0.484-0.138-0.735s0.095-0.493 0.234-0.709c0.268-0.606 0.649-1.419 1.116-2.405 0.476-0.986 1.004-1.99 1.488-3.115l1.471-3.192c0.415-1.159 0.831-2.042 1.168-2.777v0.009zM49.971 17.052l-3.824 6.67c-0.329 0.614-0.657 1.203-1.004 1.748-0.294 0.484-0.562 0.995-0.787 1.514-0.173 0.372-0.303 0.77-0.415 1.168-0.078 0.311-0.035 0.536 0.121 0.657 0.087 0.078 0.199 0.13 0.311 0.156 0.121 0.017 0.242 0.009 0.355-0.043 0.329-0.087 0.64-0.242 0.917-0.433 0.32-0.208 0.649-0.459 1.004-0.727 0.346-0.268 0.64-0.554 0.917-0.831l1.298-1.306c0.372-0.398 0.727-0.822 1.055-1.263 0.078-0.13 0.19-0.234 0.32-0.311 0.13-0.069 0.277-0.112 0.433-0.112 0.311-0.026 0.623 0.035 0.9 0.173 0.26 0.121 0.476 0.329 0.597 0.58 0.061 0.13 0.078 0.268 0.052 0.407-0.026 0.147-0.087 0.268-0.19 0.372-0.311 0.398-0.718 0.9-1.237 1.514s-1.185 1.306-2.007 2.102c-0.519 0.484-0.995 0.908-1.419 1.237-0.398 0.32-0.831 0.597-1.289 0.822-0.424 0.216-0.874 0.363-1.332 0.459-0.502 0.095-1.012 0.147-1.523 0.138-1.575 0-2.483-0.632-2.742-1.903-0.26-1.263 0.242-2.985 1.505-5.061 0.147-0.277 0.381-0.683 0.683-1.229 0.311-0.554 0.666-1.177 1.081-1.886l1.315-2.241c0.459-0.796 0.9-1.575 1.332-2.345-0.26 0.035-0.519 0.052-0.779 0.052h-0.831c-0.64 0-1.064-0.13-1.246-0.389-0.087-0.13-0.138-0.285-0.147-0.441s0.026-0.311 0.095-0.45c0.199-0.372 0.484-0.692 0.831-0.917 0.398-0.277 0.856-0.433 1.332-0.459h1.004c0.398 0 0.839 0 1.332 0l1.004-1.661c0.225-0.407 0.606-0.718 1.055-0.865 0.389-0.121 0.813-0.121 1.203 0 0.337 0.104 0.623 0.32 0.805 0.623 0.078 0.156 0.112 0.329 0.104 0.502-0.017 0.173-0.069 0.346-0.164 0.493l-0.467 0.779h1.289c0.329 0.026 0.666 0.026 0.995 0 0.459 0 0.735 0.138 0.831 0.398 0.043 0.138 0.061 0.294 0.043 0.441s-0.069 0.294-0.138 0.424c-0.182 0.355-0.424 0.666-0.735 0.917-0.303 0.277-0.701 0.433-1.107 0.433l-2.734 0.095zM64.523 24.371c0.095-0.13 0.208-0.234 0.355-0.311 0.138-0.069 0.294-0.112 0.45-0.112 0.311-0.026 0.623 0.035 0.9 0.173 0.26 0.13 0.467 0.329 0.597 0.58 0.061 0.13 0.078 0.277 0.052 0.415s-0.087 0.26-0.19 0.363c-0.156 0.182-0.355 0.45-0.623 0.796-0.26 0.346-0.571 0.727-0.917 1.125l-1.081 1.229c-0.389 0.424-0.805 0.822-1.237 1.194-0.657 0.614-1.402 1.125-2.215 1.505-0.528 0.251-1.116 0.381-1.704 0.372-0.45-0.017-0.891-0.182-1.237-0.459-0.346-0.285-0.64-0.623-0.874-1.004l-1.592 1.004c-0.787 0.381-1.67 0.562-2.552 0.502-0.727 0.017-1.445-0.173-2.068-0.545-0.588-0.372-1.047-0.917-1.298-1.566-0.285-0.761-0.381-1.592-0.277-2.396 0.138-1.081 0.493-2.111 1.038-3.054 0.554-1.047 1.254-2.016 2.094-2.855 0.744-0.753 1.575-1.419 2.466-1.99 0.753-0.484 1.566-0.874 2.422-1.151 0.64-0.225 1.315-0.346 1.998-0.363 0.337-0.009 0.683 0.043 1.004 0.156 0.277 0.104 0.545 0.234 0.796 0.389s0.484 0.337 0.692 0.545c0.199-0.372 0.528-0.649 0.926-0.796 0.398-0.164 0.831-0.234 1.272-0.19 0.337 0.035 0.649 0.19 0.874 0.441 0.19 0.251 0.173 0.58-0.069 0.995l-0.917 1.817c-0.372 0.709-0.753 1.453-1.151 2.197l-1.133 2.102c-0.26 0.484-0.545 0.96-0.848 1.419-0.147 0.199-0.225 0.45-0.216 0.701 0 0.138 0.182 0.199 0.389 0.19 0.268-0.035 0.519-0.121 0.744-0.26 0.311-0.164 0.588-0.381 0.831-0.632 0.519-0.554 0.943-1.004 1.263-1.306 0.381-0.381 0.727-0.787 1.038-1.229v0.009zM57.757 25.652c0.441-0.545 0.813-1.125 1.125-1.748 0.26-0.528 0.476-1.081 0.649-1.644 0.13-0.433 0.182-0.891 0.156-1.341 0-0.164-0.035-0.329-0.112-0.476-0.069-0.147-0.173-0.277-0.303-0.372-0.138-0.095-0.294-0.156-0.459-0.182-0.156-0.026-0.329-0.017-0.484 0.017-0.441 0.104-0.865 0.285-1.237 0.528-0.502 0.32-0.96 0.692-1.384 1.099-0.502 0.493-0.969 1.012-1.402 1.566-0.433 0.562-0.822 1.168-1.151 1.8-0.285 0.519-0.51 1.064-0.675 1.626-0.13 0.433-0.173 0.882-0.138 1.332 0.009 0.164 0.061 0.329 0.13 0.467 0.078 0.147 0.182 0.277 0.311 0.381 0.13 0.095 0.277 0.156 0.433 0.19s0.311 0.026 0.467-0.009c0.45-0.087 0.874-0.26 1.263-0.502 0.51-0.311 0.978-0.683 1.402-1.107 0.519-0.502 0.986-1.047 1.41-1.626zM64.523 24.363c0.727-0.831 1.393-1.713 2.007-2.63 0.701-1.055 1.35-1.99 1.929-2.907-0.389-0.502-0.675-1.064-0.848-1.678-0.208-0.64-0.311-1.315-0.32-1.99-0.026-0.64 0.061-1.289 0.251-1.903 0.173-0.571 0.528-1.073 0.995-1.436 0.545-0.467 1.22-0.753 1.938-0.805 0.554-0.026 1.107 0.147 1.557 0.476 0.441 0.389 0.753 0.891 0.891 1.453 0.199 0.614 0.242 1.263 0.121 1.895-0.087 0.476-0.242 0.943-0.459 1.376-0.251 0.528-0.545 1.090-0.874 1.704 0.407 0.087 0.831 0.087 1.237 0 0.415-0.095 0.848-0.078 1.246 0.061 0.311 0.112 0.58 0.311 0.779 0.58 0.182 0.225 0.285 0.502 0.285 0.796 0 0.13-0.026 0.26-0.069 0.389-0.052 0.121-0.121 0.234-0.216 0.329-0.121 0.121-0.372 0.398-0.727 0.813-0.363 0.424-0.796 0.952-1.272 1.54-0.484 0.58-1.004 1.229-1.453 1.895-0.45 0.623-0.874 1.263-1.263 1.929-0.311 0.51-0.571 1.064-0.779 1.635-0.173 0.467-0.147 0.787 0.061 0.934s0.45 0.242 0.701 0.251c0.26 0.009 0.51-0.052 0.727-0.182 0.692-0.285 1.35-0.666 1.938-1.125 0.701-0.519 1.376-1.081 1.999-1.696 0.554-0.528 1.081-1.081 1.566-1.67 0.095-0.121 0.225-0.216 0.363-0.277 0.138-0.069 0.285-0.104 0.441-0.112 0.303-0.017 0.597 0.035 0.874 0.156 0.251 0.121 0.45 0.311 0.58 0.562 0.061 0.121 0.078 0.268 0.052 0.407s-0.095 0.268-0.19 0.363c-0.614 0.805-1.28 1.557-2.007 2.267-0.839 0.874-1.782 1.661-2.794 2.336-0.969 0.657-2.033 1.159-3.158 1.488-0.493 0.156-1.012 0.216-1.531 0.164-0.51-0.043-1.012-0.19-1.471-0.433-0.372-0.164-0.692-0.433-0.926-0.761s-0.372-0.718-0.407-1.125c-0.078-0.943 0.078-1.895 0.459-2.768 0.441-1.064 1.012-2.068 1.704-2.985 0.683-0.96 1.488-1.825 2.388-2.569 0.164-0.121 0.294-0.268 0.398-0.433 0-0.078-0.303-0.242-0.943-0.484-0.77 1.194-1.514 2.284-2.232 3.296-0.718 1.004-1.211 1.678-1.453 1.99-0.095 0.138-0.225 0.251-0.372 0.337-0.147 0.078-0.311 0.13-0.476 0.138-0.303 0.026-0.597-0.043-0.856-0.208-0.234-0.138-0.424-0.355-0.528-0.614-0.052-0.13-0.061-0.268-0.043-0.407 0.026-0.138 0.087-0.26 0.182-0.363zM70.423 13.323c-0.112 0-0.234 0.026-0.329 0.078-0.104 0.052-0.19 0.13-0.251 0.225-0.147 0.234-0.242 0.502-0.277 0.779-0.043 0.329-0.043 0.666 0 0.995 0.061 0.372 0.19 0.727 0.372 1.055 0.182-0.372 0.355-0.735 0.502-1.107 0.138-0.32 0.251-0.658 0.329-0.995 0.061-0.251 0.061-0.51 0-0.761-0.017-0.069-0.069-0.138-0.13-0.19-0.061-0.043-0.138-0.069-0.216-0.078zM84.17 17.043l-3.815 6.679c-0.346 0.614-0.675 1.203-1.004 1.748-0.294 0.484-0.554 0.995-0.779 1.514-0.173 0.372-0.311 0.761-0.415 1.168-0.078 0.311 0 0.536 0.112 0.657 0.087 0.078 0.199 0.13 0.32 0.156 0.112 0.017 0.234 0.009 0.346-0.043 0.329-0.087 0.64-0.242 0.926-0.433 0.32-0.208 0.649-0.459 1.004-0.727 0.346-0.268 0.64-0.554 0.917-0.831 0.554-0.545 1.004-0.995 1.28-1.306 0.363-0.398 0.709-0.822 1.021-1.263 0.087-0.138 0.199-0.251 0.337-0.337 0.147-0.078 0.303-0.121 0.467-0.121 0.311-0.017 0.623 0.043 0.9 0.182 0.251 0.121 0.467 0.329 0.597 0.58 0.061 0.121 0.078 0.268 0.052 0.407s-0.095 0.268-0.19 0.363c-0.311 0.398-0.718 0.9-1.237 1.514-0.528 0.623-1.185 1.306-2.007 2.102-0.519 0.493-1.004 0.908-1.427 1.237-0.398 0.32-0.831 0.597-1.28 0.831-0.433 0.208-0.882 0.363-1.341 0.459-0.502 0.095-1.012 0.138-1.523 0.138-1.566 0-2.474-0.64-2.734-1.903s0.242-2.993 1.488-5.061c0.164-0.277 0.389-0.683 0.692-1.237l1.081-1.877c0.424-0.701 0.848-1.445 1.315-2.249 0.459-0.796 0.908-1.566 1.341-2.336-0.26 0.035-0.519 0.043-0.787 0.052h-0.831c-0.649 0-1.055-0.13-1.237-0.389-0.087-0.138-0.13-0.294-0.13-0.45s0.043-0.311 0.13-0.45c0.19-0.372 0.476-0.692 0.831-0.917 0.389-0.268 0.856-0.424 1.332-0.459h0.995c0.407 0 0.848 0 1.332 0l1.004-1.652c0.225-0.389 0.588-0.683 1.012-0.839 0.389-0.121 0.813-0.121 1.203 0 0.329 0.104 0.614 0.329 0.796 0.623 0.078 0.156 0.112 0.329 0.104 0.502-0.017 0.182-0.069 0.346-0.173 0.493l-0.459 0.779h1.289c0.337 0.026 0.666 0.026 1.004 0 0.459 0 0.727 0.138 0.822 0.398 0.043 0.138 0.061 0.294 0.043 0.441s-0.061 0.294-0.138 0.424c-0.173 0.355-0.424 0.666-0.727 0.917-0.32 0.268-0.727 0.415-1.142 0.407l-2.717 0.112zM91.827 24.363c0.078-0.13 0.182-0.234 0.32-0.311 0.13-0.069 0.277-0.112 0.424-0.112 0.311-0.026 0.623 0.035 0.9 0.173 0.268 0.121 0.476 0.329 0.606 0.58 0.061 0.13 0.078 0.268 0.052 0.407-0.026 0.147-0.095 0.268-0.19 0.372-0.311 0.398-0.718 0.9-1.228 1.514-0.623 0.735-1.289 1.436-1.998 2.102-0.519 0.484-1.004 0.908-1.419 1.237-0.398 0.32-0.831 0.597-1.289 0.822-0.424 0.216-0.874 0.363-1.332 0.459-0.502 0.095-1.012 0.147-1.523 0.138-1.575 0-2.483-0.632-2.743-1.903-0.26-1.263 0.234-2.985 1.497-5.061 0.268-0.459 0.562-0.995 0.874-1.531s0.623-1.125 0.943-1.67l0.917-1.557c0.294-0.484 0.554-0.908 0.761-1.246 0.234-0.407 0.614-0.709 1.064-0.848 0.381-0.121 0.787-0.121 1.168 0 0.337 0.112 0.623 0.329 0.813 0.623 0.078 0.156 0.112 0.329 0.095 0.51-0.017 0.173-0.087 0.346-0.199 0.484-0.329 0.588-0.718 1.263-1.151 2.042l-1.099 2.137c-0.329 0.614-0.657 1.203-1.004 1.748-0.294 0.484-0.562 0.995-0.787 1.514-0.173 0.372-0.311 0.77-0.415 1.168-0.078 0.311-0.035 0.536 0.121 0.657 0.087 0.078 0.199 0.13 0.311 0.156 0.121 0.017 0.242 0.009 0.355-0.043 0.355-0.087 0.692-0.234 0.995-0.433 0.346-0.225 0.683-0.467 1.004-0.727 0.329-0.285 0.64-0.554 0.917-0.831l1.246-1.306c0.355-0.398 0.683-0.822 0.995-1.263zM93.704 14.154c-0.164 0.286-0.372 0.554-0.614 0.787-0.182 0.19-0.381 0.372-0.588 0.545-0.381 0.234-0.805 0.407-1.246 0.502-0.355 0.087-0.727 0.104-1.081 0.043-0.13-0.017-0.26-0.069-0.363-0.147s-0.182-0.19-0.234-0.311c-0.104-0.234 0-0.571 0.251-0.995 0.13-0.242 0.26-0.476 0.415-0.701 0.19-0.294 0.346-0.562 0.51-0.813 0.104-0.173 0.251-0.32 0.424-0.441 0.173-0.112 0.372-0.19 0.571-0.225 0.407-0.069 0.813-0.052 1.203 0.069 0.346 0.112 0.64 0.337 0.822 0.649 0.087 0.164 0.121 0.346 0.112 0.528s-0.078 0.355-0.182 0.51zM92.19 23.497c0.545-0.978 1.22-1.877 2.007-2.682 0.744-0.735 1.575-1.367 2.483-1.895 0.787-0.467 1.67-0.779 2.578-0.917 0.813-0.121 1.644-0.043 2.414 0.234 0.285 0.087 0.536 0.242 0.735 0.459s0.337 0.484 0.398 0.779c0.069 0.597-0.026 1.203-0.26 1.756-0.242 0.649-0.58 1.254-1.004 1.8-0.372 0.476-0.796 0.908-1.254 1.306-0.268 0.242-0.632 0.372-0.995 0.363-0.329-0.017-0.649-0.138-0.9-0.346-0.234-0.182-0.407-0.433-0.502-0.709-0.052-0.121-0.061-0.251-0.026-0.372s0.104-0.234 0.199-0.311l0.787-0.779c0.285-0.285 0.545-0.58 0.787-0.9 0.173-0.208 0.294-0.459 0.363-0.727 0-0.199-0.104-0.294-0.415-0.294-0.372 0.017-0.744 0.13-1.055 0.337-0.459 0.277-0.874 0.614-1.246 0.995-0.467 0.45-0.9 0.934-1.289 1.445-0.441 0.562-0.839 1.159-1.194 1.782-0.415 0.657-0.623 1.427-0.58 2.206 0.026 0.285 0.112 0.571 0.251 0.822 0.138 0.26 0.329 0.476 0.562 0.657 0.528 0.329 1.151 0.459 1.765 0.381 0.917-0.104 1.799-0.424 2.569-0.934 0.398-0.242 0.779-0.502 1.151-0.779 0.398-0.311 0.779-0.632 1.151-0.995 0.372-0.372 0.709-0.675 1.004-1.004 0.277-0.277 0.536-0.58 0.779-0.891 0.078-0.13 0.19-0.234 0.32-0.311 0.121-0.069 0.268-0.112 0.424-0.121 0.285-0.017 0.58 0.035 0.848 0.164 0.251 0.112 0.459 0.311 0.58 0.562 0.061 0.13 0.087 0.277 0.061 0.424-0.017 0.138-0.069 0.277-0.164 0.389-0.225 0.32-0.467 0.632-0.727 0.934-0.311 0.346-0.657 0.727-1.064 1.125-0.398 0.398-0.813 0.787-1.254 1.185s-0.908 0.77-1.367 1.107c-0.813 0.657-1.739 1.151-2.743 1.462-0.856 0.26-1.748 0.389-2.639 0.389-0.761 0-1.514-0.138-2.215-0.415-0.554-0.199-1.047-0.545-1.419-0.995-0.381-0.467-0.64-1.004-0.761-1.592-0.13-0.554-0.173-1.125-0.13-1.696 0.035-0.606 0.147-1.203 0.32-1.791 0.156-0.562 0.381-1.099 0.666-1.609zM118.058 24.363c0.087-0.13 0.208-0.234 0.346-0.311 0.138-0.069 0.294-0.112 0.459-0.112 0.311-0.026 0.623 0.035 0.9 0.173 0.26 0.121 0.467 0.329 0.597 0.58 0.061 0.13 0.078 0.268 0.052 0.407s-0.095 0.268-0.19 0.372c-0.147 0.182-0.363 0.45-0.623 0.796s-0.571 0.727-0.917 1.125c-0.355 0.398-0.735 0.805-1.133 1.237-0.389 0.424-0.805 0.822-1.237 1.194-0.649 0.614-1.393 1.125-2.197 1.505-0.528 0.251-1.107 0.381-1.696 0.372-0.459-0.017-0.891-0.182-1.246-0.459-0.337-0.285-0.632-0.623-0.874-1.004l-1.592 1.004c-0.787 0.381-1.67 0.562-2.552 0.502-0.727 0.017-1.445-0.173-2.068-0.545-0.588-0.372-1.038-0.917-1.289-1.566-0.285-0.761-0.381-1.592-0.277-2.396 0.121-1.073 0.467-2.111 1.004-3.054 0.554-1.047 1.263-2.016 2.102-2.855 0.744-0.753 1.566-1.427 2.466-1.99 0.744-0.493 1.557-0.874 2.414-1.151 0.64-0.225 1.315-0.346 1.999-0.363 0.337-0.009 0.675 0.043 1.004 0.156 0.277 0.104 0.545 0.234 0.805 0.389 0.294 0.156 0.562 0.337 0.805 0.554 0.19-0.372 0.519-0.657 0.917-0.796 0.381-0.156 0.805-0.225 1.211-0.19 0.346 0.026 0.657 0.19 0.882 0.441 0.199 0.251 0.173 0.58-0.069 0.995-0.242 0.424-0.554 1.099-0.917 1.817-0.372 0.718-0.753 1.453-1.151 2.197-0.407 0.753-0.779 1.445-1.133 2.102-0.26 0.502-0.536 0.978-0.856 1.445-0.173 0.337-0.242 0.571-0.199 0.709 0.052 0.138 0.173 0.199 0.389 0.19 0.26-0.035 0.51-0.121 0.735-0.26 0.303-0.173 0.588-0.389 0.831-0.64 0.519-0.545 0.943-0.995 1.263-1.306 0.381-0.389 0.735-0.813 1.038-1.263zM111.292 25.652c0.831-1.004 1.445-2.163 1.825-3.409 0.121-0.433 0.182-0.882 0.156-1.341-0.009-0.156-0.043-0.32-0.112-0.467-0.069-0.138-0.173-0.268-0.294-0.372-0.147-0.104-0.311-0.164-0.484-0.19-0.173-0.035-0.355-0.017-0.519 0.026-0.441 0.104-0.865 0.285-1.246 0.528-0.493 0.32-0.952 0.692-1.376 1.099-0.502 0.493-0.969 1.012-1.402 1.566-0.433 0.571-0.822 1.177-1.151 1.808-0.285 0.519-0.51 1.064-0.675 1.626-0.13 0.433-0.173 0.882-0.13 1.332 0.009 0.164 0.052 0.329 0.13 0.467 0.069 0.147 0.173 0.277 0.303 0.381 0.13 0.095 0.277 0.156 0.433 0.19 0.156 0.026 0.311 0.026 0.467-0.009 0.45-0.087 0.874-0.26 1.263-0.502 0.51-0.311 0.978-0.683 1.41-1.107 0.51-0.502 0.978-1.047 1.402-1.626z"></path>
</symbol>
<symbol id="icon-IMAGE-6" viewBox="0 0 130 32">
<path d="M89.709 23.048c1.305 0.017 2.611-0.236 3.815-0.749 1.187-0.531 2.333-1.162 3.411-1.886l5.347 6.998c-0.851 0.783-1.802 1.44-2.846 1.945-1.061 0.505-2.173 0.901-3.318 1.187-1.204 0.295-2.434 0.505-3.672 0.623-1.263 0.118-2.552 0.177-3.891 0.177-1.356 0-2.703-0.067-4.051-0.202-1.322-0.135-2.577-0.312-3.764-0.547-1.103-0.211-2.189-0.488-3.267-0.817-0.876-0.278-1.726-0.623-2.552-1.036l9.642-19.301h-7.192v-8.952h22.063l-10.526 22.56h0.8zM119.006 12.531c-0.286-0.674-0.707-1.272-1.246-1.76-0.547-0.505-1.179-0.909-1.878-1.187-0.716-0.295-1.491-0.455-2.265-0.455-0.783 0-1.549 0.16-2.265 0.455-1.381 0.547-2.501 1.6-3.116 2.947-0.312 0.665-0.48 1.398-0.48 2.147 0 0.741 0.168 1.474 0.48 2.147 0.615 1.339 1.735 2.4 3.116 2.939 0.716 0.295 1.482 0.455 2.265 0.455 0.775 0 1.549-0.16 2.265-0.455 0.699-0.278 1.331-0.674 1.878-1.187 0.539-0.488 0.96-1.086 1.246-1.752 0.295-0.682 0.455-1.415 0.455-2.147 0-0.741-0.16-1.474-0.455-2.147zM127.823 20.505c-0.792 1.76-1.92 3.36-3.318 4.699-1.432 1.356-3.116 2.434-4.952 3.158-3.891 1.516-8.219 1.516-12.109 0-3.663-1.457-6.619-4.269-8.236-7.857-0.808-1.811-1.221-3.764-1.221-5.752 0-1.979 0.413-3.933 1.221-5.743 0.792-1.76 1.92-3.352 3.318-4.691 1.44-1.339 3.099-2.408 4.918-3.158 3.891-1.558 8.227-1.558 12.109 0 1.827 0.741 3.503 1.811 4.943 3.158 1.398 1.331 2.526 2.922 3.318 4.691 0.808 1.811 1.221 3.764 1.221 5.743 0 1.987-0.413 3.941-1.221 5.752h0.008zM68.185 9.44v19.613h-9.389v-19.613h-5.785v-8.952h20.918v8.952h-5.743zM42.181 9.583c-0.211-0.211-0.455-0.379-0.733-0.488s-0.573-0.168-0.867-0.16h-1.448v4.379h1.448c0.295 0.008 0.589-0.051 0.867-0.16s0.522-0.278 0.733-0.488c0.211-0.202 0.379-0.446 0.488-0.707 0.118-0.269 0.177-0.556 0.177-0.842 0-0.295-0.059-0.581-0.177-0.842-0.109-0.269-0.278-0.505-0.488-0.707v0.017zM48.674 19.023l6.535 9.979h-10.080c-1.465-2.063-2.594-3.613-3.402-4.648-0.539-0.716-1.128-1.406-1.743-2.063-0.362-0.345-0.581-0.463-0.648-0.345-0.067 0.109-0.101 0.236-0.101 0.371v6.686h-9.339v-28.514h11.436c1.381 0.008 2.745 0.312 3.992 0.901 1.255 0.564 2.392 1.356 3.352 2.333 1.036 0.994 1.853 2.181 2.417 3.503 0.522 1.263 0.792 2.627 0.783 4-0.008 1.415-0.286 2.821-0.825 4.135-0.547 1.356-1.356 2.602-2.375 3.663zM14.375 11.571l-1.6 6.105h3.116l-1.516-6.105zM19.217 29.002l-0.901-3.276h-7.941l-0.893 3.276h-9.482l9.229-28.514h10.24l9.229 28.514h-9.482z"></path>
</symbol>
<symbol id="icon-IMAGE-5" viewBox="0 0 24 32">
<path fill="#a68f4b" style="fill: var(--color1, #a68f4b)" d="M20 0h-16c-1.064 0-2.080 0.419-2.833 1.167-0.748 0.753-1.167 1.769-1.167 2.833v24c0 1.059 0.419 2.075 1.167 2.828 0.753 0.748 1.769 1.172 2.833 1.172h16c1.059 0 2.075-0.424 2.828-1.172 0.748-0.753 1.172-1.769 1.172-2.828v-24c0-1.064-0.424-2.080-1.172-2.833-0.753-0.748-1.769-1.167-2.828-1.167v0zM12.998 22h-8c-0.264 0-0.518-0.108-0.706-0.296s-0.292-0.442-0.292-0.706c0-0.264 0.104-0.518 0.292-0.706s0.442-0.292 0.706-0.292h8c0.264 0 0.518 0.104 0.706 0.292s0.296 0.442 0.296 0.706c0 0.264-0.108 0.518-0.296 0.706s-0.442 0.296-0.706 0.296zM18.998 16h-14c-0.264 0-0.518-0.108-0.706-0.296s-0.292-0.442-0.292-0.706c0-0.264 0.104-0.518 0.292-0.706s0.442-0.292 0.706-0.292h14c0.264 0 0.518 0.104 0.706 0.292s0.296 0.442 0.296 0.706c0 0.264-0.108 0.518-0.296 0.706s-0.442 0.296-0.706 0.296zM18.998 10h-14c-0.264 0-0.518-0.108-0.706-0.296s-0.292-0.442-0.292-0.706c0-0.264 0.104-0.518 0.292-0.706s0.442-0.292 0.706-0.292h14c0.264 0 0.518 0.104 0.706 0.292s0.296 0.442 0.296 0.706c0 0.264-0.108 0.518-0.296 0.706s-0.442 0.296-0.706 0.296z"></path>
</symbol>
<symbol id="icon-IMAGE-4" viewBox="0 0 24 32">
<path fill="#a68f4b" style="fill: var(--color1, #a68f4b)" d="M15.040 14h6.974c0.405-0.009 0.795 0.113 1.125 0.348 0.325 0.231 0.569 0.56 0.696 0.941 0.165 0.376 0.207 0.791 0.113 1.191-0.089 0.4-0.301 0.758-0.612 1.026l-16.014 14c-0.339 0.296-0.772 0.471-1.228 0.494-0.452 0.019-0.899-0.113-1.271-0.381-0.367-0.268-0.631-0.649-0.753-1.087-0.118-0.438-0.085-0.904 0.094-1.322l4.809-11.209h-7.031c-0.405-0.014-0.791-0.146-1.12-0.381-0.325-0.235-0.574-0.565-0.711-0.946-0.136-0.376-0.155-0.786-0.052-1.176 0.099-0.391 0.315-0.739 0.621-1.007l16.014-14c0.339-0.296 0.772-0.471 1.224-0.489 0.456-0.024 0.904 0.113 1.271 0.376 0.367 0.268 0.631 0.649 0.753 1.087s0.089 0.904-0.089 1.322l-4.814 11.214z"></path>
</symbol>
<symbol id="icon-IMAGE-3" viewBox="0 0 28 32">
<path fill="#a68f4b" style="fill: var(--color1, #a68f4b)" d="M14.118 20c1.958-0.005 3.849-0.72 5.318-2.009s2.409-3.064 2.649-4.993h-15.934c0.24 1.929 1.181 3.704 2.645 4.993 1.468 1.289 3.36 2.005 5.322 2.009zM5.544 10.998h17.144c0.132 0 0.264-0.052 0.358-0.146s0.146-0.221 0.146-0.353v-2c0-0.132-0.052-0.259-0.146-0.353s-0.226-0.146-0.358-0.146h-0.504c0-1.379-0.409-2.725-1.176-3.873-0.762-1.144-1.854-2.042-3.134-2.579l-1.741 3.449v-4c0-0.132-0.024-0.264-0.075-0.381-0.052-0.122-0.122-0.235-0.216-0.325-0.094-0.094-0.207-0.169-0.329-0.216-0.122-0.052-0.254-0.080-0.386-0.075h-2.019c-0.132-0.005-0.264 0.024-0.386 0.075-0.122 0.047-0.231 0.122-0.325 0.216-0.094 0.089-0.169 0.202-0.221 0.325-0.052 0.118-0.075 0.249-0.075 0.381v4l-1.741-3.454c-1.275 0.536-2.367 1.435-3.134 2.584s-1.176 2.494-1.176 3.873h-0.504c-0.132 0-0.259 0.052-0.353 0.146s-0.151 0.221-0.151 0.353v1.944c-0.005 0.071 0.005 0.141 0.028 0.207 0.019 0.066 0.056 0.127 0.104 0.179s0.104 0.094 0.169 0.122c0.061 0.028 0.132 0.047 0.202 0.047zM19.835 22h-11.435c-2.231 0-4.367 0.875-5.944 2.438-1.572 1.562-2.456 3.685-2.456 5.892 0 0.442 0.174 0.866 0.489 1.181 0.315 0.311 0.744 0.485 1.191 0.489h24.871c0.447 0 0.875-0.179 1.191-0.489 0.315-0.315 0.494-0.739 0.494-1.181 0-1.092-0.216-2.179-0.64-3.186-0.424-1.012-1.040-1.929-1.821-2.706-0.781-0.772-1.704-1.388-2.725-1.807s-2.113-0.635-3.214-0.631z"></path>
</symbol>
<symbol id="icon-IMAGE-2" viewBox="0 0 32 32">
<path fill="#a68f4b" style="fill: var(--color1, #a68f4b)" d="M22 6c0 0.866-0.188 1.722-0.551 2.508l3.299 5.704c-1.501 1.6-3.412 2.762-5.525 3.351l-3.224-5.562h-0.056l-4.202 7.341c1.379 0.438 2.814 0.659 4.259 0.659 2.104 0 4.184-0.475 6.075-1.393 1.896-0.918 3.553-2.259 4.852-3.915 0.344-0.405 0.828-0.659 1.36-0.706 0.527-0.047 1.049 0.113 1.459 0.447s0.673 0.819 0.729 1.346c0.056 0.527-0.099 1.054-0.428 1.468-1.689 2.104-3.826 3.802-6.259 4.969-2.428 1.172-5.092 1.779-7.788 1.784-2.151 0-4.282-0.381-6.296-1.134l-3.539 6.113c-0.296 0.508-0.729 0.918-1.256 1.181l-3.464 1.732c-0.151 0.075-0.32 0.113-0.489 0.104-0.174-0.005-0.339-0.056-0.485-0.146-0.141-0.089-0.264-0.216-0.348-0.367-0.080-0.146-0.122-0.315-0.122-0.485v-3.464c0-0.527 0.136-1.045 0.4-1.506l3.751-6.475c-0.8-0.701-1.534-1.473-2.202-2.306-0.334-0.414-0.489-0.941-0.433-1.473 0.056-0.527 0.315-1.012 0.729-1.351 0.409-0.334 0.936-0.494 1.468-0.447 0.527 0.052 1.016 0.306 1.355 0.715 0.339 0.471 0.72 0.908 1.139 1.313l4.339-7.496c-0.372-0.814-0.56-1.699-0.546-2.598s0.226-1.779 0.626-2.584c0.4-0.8 0.974-1.506 1.68-2.056s1.529-0.936 2.405-1.129c0.875-0.193 1.784-0.188 2.659 0.019 0.871 0.202 1.689 0.602 2.386 1.162 0.701 0.565 1.266 1.275 1.652 2.085 0.391 0.809 0.588 1.694 0.593 2.593zM16 8c0.395 0 0.781-0.118 1.111-0.339s0.584-0.532 0.734-0.899c0.151-0.367 0.193-0.767 0.113-1.153-0.075-0.391-0.268-0.748-0.546-1.026s-0.635-0.471-1.026-0.546c-0.386-0.080-0.786-0.038-1.153 0.113s-0.678 0.405-0.899 0.734c-0.221 0.329-0.334 0.715-0.334 1.115 0 0.527 0.207 1.035 0.584 1.412s0.885 0.588 1.416 0.588zM23.256 24.616c2.038-0.781 3.934-1.896 5.605-3.308l2.729 4.72c0.268 0.456 0.409 0.979 0.409 1.506v3.464c0 0.169-0.047 0.339-0.127 0.489-0.085 0.146-0.207 0.273-0.348 0.362-0.146 0.089-0.315 0.141-0.485 0.151-0.169 0.005-0.339-0.033-0.494-0.108l-3.459-1.732c-0.527-0.264-0.96-0.673-1.256-1.181l-2.574-4.362z"></path>
</symbol>
<symbol id="icon-IMAGE-1" viewBox="0 0 32 32">
<path fill="#a68f4b" style="fill: var(--color1, #a68f4b)" d="M0 2c0-0.532 0.207-1.040 0.584-1.416s0.885-0.584 1.416-0.584h8c0.527 0 1.035 0.207 1.412 0.584s0.588 0.885 0.588 1.416v24c0 1.591-0.635 3.115-1.76 4.24s-2.649 1.76-4.24 1.76c-1.595 0-3.12-0.635-4.245-1.76s-1.755-2.649-1.755-4.24v-24zM8 4h-4v4h4v-4zM4 16h4v-4h-4v4zM6 27.496c0.296 0 0.584-0.085 0.833-0.249 0.245-0.165 0.438-0.4 0.551-0.678 0.113-0.273 0.141-0.574 0.085-0.866s-0.202-0.555-0.409-0.767c-0.212-0.207-0.475-0.353-0.767-0.409s-0.593-0.028-0.866 0.085c-0.278 0.113-0.508 0.306-0.678 0.551-0.165 0.249-0.249 0.536-0.249 0.838 0 0.193 0.038 0.391 0.113 0.574 0.075 0.179 0.184 0.348 0.325 0.485 0.141 0.141 0.306 0.249 0.485 0.325 0.184 0.075 0.381 0.113 0.579 0.113zM14 26v-16.376l4.711-4.711c0.376-0.376 0.885-0.588 1.416-0.588s1.040 0.212 1.416 0.588l5.656 5.652c0.372 0.376 0.584 0.885 0.584 1.416s-0.212 1.040-0.584 1.416l-13.228 13.219c0.019-0.202 0.028-0.414 0.028-0.616zM23.421 20h6.579c0.527 0 1.035 0.207 1.412 0.584s0.588 0.885 0.588 1.416v8c0 0.527-0.212 1.035-0.588 1.412s-0.885 0.588-1.412 0.588h-18.579l12-12z"></path>
</symbol>
<symbol id="icon-IMAGE" viewBox="0 0 32 32">
<path fill="#a68f4b" style="fill: var(--color1, #a68f4b)" d="M30.824 2.635c0.753 0.753 1.176 1.769 1.176 2.833s-0.424 2.085-1.176 2.833l-3.525 3.529-7.134-7.129 3.529-3.529c0.748-0.753 1.769-1.172 2.833-1.172s2.080 0.419 2.833 1.172l1.464 1.464zM2.805 22.061l15.944-15.948 7.134 7.134-15.953 15.939c-0.419 0.424-0.941 0.729-1.511 0.894l-6.508 1.859c-0.259 0.080-0.541 0.075-0.8 0-0.264-0.075-0.494-0.231-0.673-0.438-0.193-0.174-0.329-0.4-0.395-0.654-0.071-0.249-0.066-0.518 0.014-0.762l1.859-6.508c0.165-0.574 0.471-1.096 0.889-1.515zM15.6 6.433l-9.134 9.134-5.468-5.473c-0.278-0.282-0.499-0.612-0.649-0.974-0.151-0.367-0.231-0.758-0.231-1.148 0-0.395 0.080-0.786 0.231-1.153 0.151-0.362 0.372-0.692 0.649-0.969l4.885-4.889c0.278-0.278 0.612-0.499 0.974-0.649s0.753-0.231 1.148-0.231c0.395 0 0.786 0.080 1.148 0.231 0.367 0.151 0.696 0.372 0.974 0.649l1.238 1.238c-0.019 0.019-0.042 0.038-0.061 0.056l-4.005 4.009c-0.099 0.089-0.174 0.202-0.226 0.325s-0.080 0.249-0.080 0.386c0 0.132 0.024 0.264 0.075 0.386 0.047 0.122 0.122 0.235 0.216 0.329s0.207 0.165 0.329 0.216c0.122 0.052 0.254 0.075 0.386 0.075s0.264-0.028 0.386-0.080c0.122-0.052 0.235-0.132 0.325-0.226l4.009-4.005c0.019-0.019-0.014-0.038 0.056-0.061l2.824 2.824zM28.386 19.219c-0.024 0.019-0.042 0.038-0.066 0.056l-4 4.005c-0.184 0.188-0.287 0.442-0.282 0.706 0 0.259 0.108 0.513 0.292 0.696 0.184 0.188 0.438 0.292 0.701 0.292 0.259 0.005 0.513-0.099 0.701-0.278l4.005-4.005c0.019-0.075-0.014-0.047 0.056-0.066l1.238 1.242c0.565 0.56 0.88 1.322 0.88 2.122 0 0.795-0.315 1.558-0.88 2.118l-4.885 4.889c-0.565 0.56-1.327 0.875-2.122 0.875s-1.558-0.315-2.122-0.875l-5.473-5.468 9.134-9.139 2.824 2.828z"></path>
</symbol>
<symbol id="icon-Layer-2" viewBox="0 0 124 32">
<path fill="#fff" style="fill: var(--color2, #fff)" d="M29.629 28.571h-5.505l-0.751 3.429h-6.165l5.91-22.857h7.615l5.904 22.857h-6.289l-0.718-3.429zM28.663 24.163l-1.75-8.222-1.829 8.222h3.579z"></path>
<path fill="#fff" style="fill: var(--color2, #fff)" d="M54.282 9.143v22.857h-5.362l-5.12-12.003v12.003h-5.727v-22.857h5.368l5.12 12.206v-12.206h5.721z"></path>
<path fill="#fff" style="fill: var(--color2, #fff)" d="M71.001 13.59h-4.434v18.41h-6.25v-18.41h-4.421v-4.447h15.105v4.447z"></path>
<path fill="#fff" style="fill: var(--color2, #fff)" d="M83.598 28.571h-5.512l-0.751 3.429h-6.158l5.91-22.857h7.621l5.904 22.857h-6.296l-0.718-3.429zM82.632 24.157l-1.75-8.216-1.829 8.222 3.579-0.007z"></path>
<path fill="#fff" style="fill: var(--color2, #fff)" d="M101.211 16.973v-2.958c0-0.529-0.287-0.784-0.895-0.784h-1.293c-0.607 0-0.895 0.255-0.895 0.784v13.107c0 0.535 0.287 0.784 0.895 0.784h1.293c0.607 0 0.895-0.248 0.895-0.784v-3.807h-1.789v-3.958h8.039v8.229c0 2.665-1.437 4.415-5.257 4.415h-5.087c-3.827 0-5.257-1.75-5.257-4.415v-14.034c0-2.665 1.437-4.408 5.257-4.408h5.087c3.827 0 5.257 1.744 5.257 4.408v3.429l-6.25-0.007z"></path>
<path fill="#fff" style="fill: var(--color2, #fff)" d="M124.082 27.546v4.454h-14.106v-22.857h13.786v4.447h-7.523v4.663h6.478v4.454h-6.478v4.839h7.843z"></path>
<path fill="#fff" style="fill: var(--color2, #fff)" d="M12.062 0l-4.408 24.411-1.339-7.843h-6.315l4.036 15.432h7.269l6.498-26.286h106.279l-112.020-5.714z"></path>
</symbol>
</defs>
</svg>
